<!DOCTYPE svg PUBLIC "-//W3C//DTD SVG 1.1//EN" "http://www.w3.org/Graphics/SVG/1.1/DTD/svg11.dtd">
<!-- Uploaded to: SVG Repo, www.svgrepo.com, Transformed by: SVG Repo Mixer Tools -->
<svg height="800px" width="800px" version="1.1" id="Layer_1" xmlns="http://www.w3.org/2000/svg" xmlns:xlink="http://www.w3.org/1999/xlink" viewBox="0 0 512 512" xml:space="preserve" fill="#C4DF63" stroke="#C4DF63">
<g id="SVGRepo_bgCarrier" stroke-width="0"/>
<g id="SVGRepo_tracerCarrier" stroke-linecap="round" stroke-linejoin="round"/>
<g id="SVGRepo_iconCarrier"> <g> <path style="fill:#C4DF63;" d="M460.8,0H51.2C22.924,0,0,22.924,0,51.2s22.924,51.2,51.2,51.2h409.6 c28.276,0,51.2-22.924,51.2-51.2S489.076,0,460.8,0z"/> <path style="fill:#C4DF63;" d="M460.8,204.8H51.2C22.924,204.8,0,227.724,0,256c0,28.276,22.924,51.2,51.2,51.2h409.6 c28.276,0,51.2-22.924,51.2-51.2C512,227.724,489.076,204.8,460.8,204.8z"/> <path style="fill:#C4DF63;" d="M460.8,409.6H51.2C22.924,409.6,0,432.524,0,460.8C0,489.076,22.924,512,51.2,512h409.6 c28.276,0,51.2-22.924,51.2-51.2C512,432.524,489.076,409.6,460.8,409.6z"/> </g> </g>
</svg>