<!DOCTYPE svg PUBLIC "-//W3C//DTD SVG 1.1//EN" "http://www.w3.org/Graphics/SVG/1.1/DTD/svg11.dtd">
<!-- Uploaded to: SVG Repo, www.svgrepo.com, Transformed by: SVG Repo Mixer Tools -->
<svg width="800px" height="800px" viewBox="-5 0 25 25" version="1.1" xmlns="http://www.w3.org/2000/svg" xmlns:xlink="http://www.w3.org/1999/xlink" fill="#000000">
<g id="SVGRepo_bgCarrier" stroke-width="0"/>
<g id="SVGRepo_tracerCarrier" stroke-linecap="round" stroke-linejoin="round"/>
<g id="SVGRepo_iconCarrier"> <title>right</title> <desc>Created with Sketch.</desc> <defs> <linearGradient x1="50%" y1="0%" x2="50%" y2="100%" id="linearGradient-1"> <stop stop-color="#C4DF63" offset="0%"> </stop> <stop stop-color="#C4DF63" offset="100%"> </stop> </linearGradient> </defs> <g id="icons" stroke="none" stroke-width="1" fill="none" fill-rule="evenodd"> <g id="ui-gambling-website-lined-icnos-casinoshunter" transform="translate(-483.000000, -1910.000000)" fill="url(#linearGradient-1)" fill-rule="nonzero"> <g id="4" transform="translate(50.000000, 1871.000000)"> <path d="M436.453517,39.569249 L447.302459,49.9938158 L447.39261,50.0748802 C447.75534,50.423454 447.968159,50.8870461 448,51.4382227 L447.998135,51.6228229 C447.968159,52.1129539 447.75534,52.576546 447.333675,52.9774469 L447.339095,52.9689832 L436.453517,63.430751 C435.663694,64.1897497 434.399001,64.1897497 433.609178,63.430751 C432.796941,62.650213 432.796941,61.3675924 433.609432,60.5868106 L443.012324,51.5572471 L433.609178,42.4129456 C432.796941,41.6324076 432.796941,40.349787 433.609178,39.569249 C434.399001,38.8102503 435.663694,38.8102503 436.453517,39.569249 Z" id="right"> </path> </g> </g> </g> </g>
</svg>